<?xml version="1.0" encoding="utf-8"?>
<!-- Uploaded to: SVG Repo, www.svgrepo.com, Generator: SVG Repo Mixer Tools -->
<svg fill="#000000" version="1.1" id="Layer_1" xmlns="http://www.w3.org/2000/svg" xmlns:xlink="http://www.w3.org/1999/xlink" 
	 width="800px" height="800px" viewBox="0 0 256 253" enable-background="new 0 0 256 253" xml:space="preserve">
<path d="M161.681,125.767V123.4h-16.795c-2.913,0.046-3.004-4.46,0-4.46h16.795v-2.23h-16.795c-2.913,0-3.004-4.46,0-4.506
	l20.3,0.046c4.142,0,6.645,3.823,6.645,6.827v90.866c0,6.554-10.15,6.645-10.104,0V177.29h-16.749c-2.958,0-3.004-4.506,0-4.506
	h16.749v-2.23h-16.749c-3.004,0-3.004-4.46,0-4.46h16.749v-2.23h-16.749c-3.004,0-3.004-4.506,0-4.46h16.749v-2.276h-16.749
	c-3.004,0.046-3.004-4.46,0-4.46h16.749v-2.23h-16.749c-2.958,0-3.004-4.46,0-4.46h16.749v-2.23h-16.749
	c-2.958,0-3.049-4.506,0-4.506h16.749v-0.091v-2.23h-16.749c-2.958,0-3.049-4.46,0-4.46h16.704v-2.23h-16.795
	c-2.913,0-3.004-4.506,0-4.46h16.84H161.681z M116.758,192.173v-29.63l-5.598-48.746c-0.182-1.32-0.956-1.639-1.73-1.639
	c-0.728,0-1.548,0.273-1.684,1.639l-5.462,48.746v29.63c-10.332-5.371-18.069,3.004-18.115,10.605
	c0.046,6.782,5.052,12.38,12.198,12.38c7.146-0.046,12.016-6.281,12.016-12.38v-29.767h2.276v29.767
	c0,7.055,5.735,12.289,11.834,12.289c7.692,0,12.562-5.416,12.562-12.243C135.1,195.131,127.09,186.802,116.758,192.173z
	 M96.231,208.968c-3.368,0-6.053-2.731-6.099-6.099c0.046-3.323,2.731-6.053,6.099-6.053s6.099,2.685,6.099,6.053
	C102.33,206.237,99.599,208.968,96.231,208.968z M122.993,208.968c-3.323,0-6.053-2.731-6.053-6.099
	c0-3.323,2.685-6.053,6.053-6.053s6.099,2.685,6.099,6.053C129.092,206.237,126.407,208.968,122.993,208.968z M2,69
	c0,13.678,9.625,25.302,22,29.576V233H2v18h252v-18h-22V98.554c12.89-3.945,21.699-15.396,22-29.554v-8H2V69z M65.29,68.346
	c0,6.477,6.755,31.47,31.727,31.47c21.689,0,31.202-19.615,31.202-31.47c0,11.052,7.41,31.447,31.464,31.447
	c21.733,0,31.363-20.999,31.363-31.447c0,14.425,9.726,26.416,22.954,30.154V233H42V98.594C55.402,94.966,65.29,82.895,65.29,68.346
	z M222.832,22H223V2H34v20L2,54h252L222.832,22z"/>
</svg>